<svg width="24" height="24" viewBox="0 0 24 24" fill="none" xmlns="http://www.w3.org/2000/svg">
<circle cx="12" cy="12" r="12" fill="white"/>
<path d="M12.1094 5.45757C13.1959 4.52243 16.0147 5.19696 16.5658 6.546C15.1486 5.68752 13.7313 5.30427 12.1094 5.45757Z" fill="#547CA0"/>
<path d="M2.48809 11.2369C1.99993 11.2216 1.73223 11.4822 1.71648 11.9114C1.70073 12.356 2.01568 12.6319 2.4566 12.6779C2.92902 12.7086 3.14948 12.3867 3.24396 11.9728C3.16522 11.5588 2.97626 11.2522 2.48809 11.2369ZM7.07053 9.58127C6.97605 9.48929 6.86582 9.39731 6.73984 9.47396C6.6611 9.51995 6.55087 9.62726 6.6611 9.71924C7.07053 10.0565 6.83432 10.5011 6.88156 11.0223C7.41697 10.5164 7.46421 9.93386 7.07053 9.58127ZM21.558 11.4209C21.432 11.053 21.1643 10.8843 20.7864 10.9916C20.6131 11.0376 20.4714 11.1756 20.2824 11.1296C19.5581 10.8383 19.3534 10.3324 19.2904 9.56594C18.9597 6.07069 15.8732 3.29596 12.4088 3.2653C8.75548 3.23464 5.65328 5.85607 5.24385 9.41264C5.16512 10.1332 4.9919 10.6237 4.25178 10.823C4.11006 10.8997 3.88959 10.8843 3.84235 11.1756C4.11006 11.1449 4.34626 11.0989 4.55098 10.9456C5.11788 10.823 5.66903 10.685 6.23593 10.5624C6.3934 10.5317 6.58237 10.5011 6.56662 10.3171C6.55087 10.0718 6.34616 10.0565 6.15719 10.1178C5.63753 10.2865 5.68478 9.97985 5.71627 9.64259C5.79501 8.63081 6.1257 7.68035 6.6611 6.83719C7.71617 5.18155 9.1964 4.12378 11.212 3.77119C11.212 3.86317 11.2278 3.90916 11.212 3.90916C11.1333 3.97048 11.0546 4.04713 10.9758 4.09312C8.9602 5.45749 7.8264 7.28177 8.03111 9.71924C8.12559 10.8077 7.88939 11.4975 6.80283 11.9728C5.90524 12.3713 5.95248 12.4786 5.71627 11.4975C5.68478 11.3289 5.70052 11.0989 5.43282 11.1143C5.19661 11.1296 5.14937 11.2982 5.16512 11.4975C5.18087 12.264 5.32259 13.0152 5.76351 13.6744C5.93673 13.935 6.14145 14.0576 6.51938 13.9657C6.10995 13.5364 6.29892 13.1838 6.62961 12.8772C6.94455 12.5706 7.35398 12.3713 7.76341 12.2027C10.1097 11.2522 12.5821 10.823 15.1174 10.7617C16.1094 10.731 17.1173 10.7157 18.0778 11.0683C18.8179 11.3442 18.8967 11.5742 18.5502 12.264C18.3455 12.494 17.9676 12.5553 17.8889 12.9232C18.3613 12.8466 18.3613 12.8466 18.7392 12.448C18.9754 12.2487 19.1801 12.0187 19.2116 11.6968C19.2746 11.0836 19.5896 10.9456 20.125 11.2369C20.3139 11.3749 20.4242 11.5435 20.4872 11.7735C20.5816 12.0954 20.8651 12.264 21.2273 12.1261C21.5422 12.0187 21.6682 11.7581 21.558 11.4209ZM16.4874 9.33599C16.4559 9.55061 16.3456 9.71924 16.0937 9.71924C15.7315 9.71924 15.3536 9.71924 14.9914 9.71924V9.70391C14.6449 9.71924 14.3142 9.7499 13.9678 9.76523C13.7001 9.76523 13.5269 9.65792 13.5111 9.36665C13.4954 9.07538 13.6844 9.04472 13.9048 9.01406C14.6292 8.90675 15.3693 8.93741 16.0937 8.9834C16.3299 8.99873 16.5189 9.07538 16.4874 9.33599ZM17.6527 8.60015C15.0544 7.92563 12.5191 8.23223 9.99951 8.99873C9.36962 9.18269 9.24365 9.07538 9.25939 8.38553C9.35388 6.97517 9.92078 5.7181 11.3223 4.99759C12.897 4.1851 14.5032 4.29241 16.0149 5.21221C17.0858 5.8714 17.8731 6.77588 18.1093 8.03294C18.1723 8.35487 18.2668 8.75345 17.6527 8.60015ZM21.558 11.4209C21.432 11.053 21.1643 10.8843 20.7864 10.9916C20.6131 11.0376 20.4714 11.1756 20.2824 11.1296C19.5581 10.8383 19.3534 10.3324 19.2904 9.56594C18.9597 6.07069 15.8732 3.29596 12.4088 3.2653C8.75548 3.23464 5.65328 5.85607 5.24385 9.41264C5.16512 10.1332 4.9919 10.6237 4.25178 10.823C4.11006 10.8997 3.88959 10.8843 3.84235 11.1756C4.11006 11.1449 4.34626 11.0989 4.55098 10.9456C5.11788 10.823 5.66903 10.685 6.23593 10.5624C6.3934 10.5317 6.58237 10.5011 6.56662 10.3171C6.55087 10.0718 6.34616 10.0565 6.15719 10.1178C5.63753 10.2865 5.68478 9.97985 5.71627 9.64259C5.79501 8.63081 6.1257 7.68035 6.6611 6.83719C7.71617 5.18155 9.1964 4.12378 11.212 3.77119C11.212 3.86317 11.2278 3.90916 11.212 3.90916C11.1333 3.97048 11.0546 4.04713 10.9758 4.09312C8.9602 5.45749 7.8264 7.28177 8.03111 9.71924C8.12559 10.8077 7.88939 11.4975 6.80283 11.9728C5.90524 12.3713 5.95248 12.4786 5.71627 11.4975C5.68478 11.3289 5.70052 11.0989 5.43282 11.1143C5.19661 11.1296 5.14937 11.2982 5.16512 11.4975C5.18087 12.264 5.32259 13.0152 5.76351 13.6744C5.93673 13.935 6.14145 14.0576 6.51938 13.9657C6.10995 13.5364 6.29892 13.1838 6.62961 12.8772C6.94455 12.5706 7.35398 12.3713 7.76341 12.2027C10.1097 11.2522 12.5821 10.823 15.1174 10.7617C16.1094 10.731 17.1173 10.7157 18.0778 11.0683C18.8179 11.3442 18.8967 11.5742 18.5502 12.264C18.3455 12.494 17.9676 12.5553 17.8889 12.9232C18.3613 12.8466 18.3613 12.8466 18.7392 12.448C18.9754 12.2487 19.1801 12.0187 19.2116 11.6968C19.2746 11.0836 19.5896 10.9456 20.125 11.2369C20.3139 11.3749 20.4242 11.5435 20.4872 11.7735C20.5816 12.0954 20.8651 12.264 21.2273 12.1261C21.5422 12.0187 21.6682 11.7581 21.558 11.4209ZM16.4874 9.33599C16.4559 9.55061 16.3456 9.71924 16.0937 9.71924C15.7315 9.71924 15.3536 9.71924 14.9914 9.71924V9.70391C14.6449 9.71924 14.3142 9.7499 13.9678 9.76523C13.7001 9.76523 13.5269 9.65792 13.5111 9.36665C13.4954 9.07538 13.6844 9.04472 13.9048 9.01406C14.6292 8.90675 15.3693 8.93741 16.0937 8.9834C16.3299 8.99873 16.5189 9.07538 16.4874 9.33599ZM17.6527 8.60015C15.0544 7.92563 12.5191 8.23223 9.99951 8.99873C9.36962 9.18269 9.24365 9.07538 9.25939 8.38553C9.35388 6.97517 9.92078 5.7181 11.3223 4.99759C12.897 4.1851 14.5032 4.29241 16.0149 5.21221C17.0858 5.8714 17.8731 6.77588 18.1093 8.03294C18.1723 8.35487 18.2668 8.75345 17.6527 8.60015ZM7.07053 9.58127C6.97605 9.48929 6.86582 9.39731 6.73984 9.47396C6.6611 9.51995 6.55087 9.62726 6.6611 9.71924C7.07053 10.0565 6.83432 10.5011 6.88156 11.0223C7.41697 10.5164 7.46421 9.93386 7.07053 9.58127ZM2.48809 11.2369C1.99993 11.2216 1.73223 11.4822 1.71648 11.9114C1.70073 12.356 2.01568 12.6319 2.4566 12.6779C2.92902 12.7086 3.14948 12.3867 3.24396 11.9728C3.16522 11.5588 2.97626 11.2522 2.48809 11.2369ZM2.48809 11.2369C1.99993 11.2216 1.73223 11.4822 1.71648 11.9114C1.70073 12.356 2.01568 12.6319 2.4566 12.6779C2.92902 12.7086 3.14948 12.3867 3.24396 11.9728C3.16522 11.5588 2.97626 11.2522 2.48809 11.2369ZM7.07053 9.58127C6.97605 9.48929 6.86582 9.39731 6.73984 9.47396C6.6611 9.51995 6.55087 9.62726 6.6611 9.71924C7.07053 10.0565 6.83432 10.5011 6.88156 11.0223C7.41697 10.5164 7.46421 9.93386 7.07053 9.58127ZM21.558 11.4209C21.432 11.053 21.1643 10.8843 20.7864 10.9916C20.6131 11.0376 20.4714 11.1756 20.2824 11.1296C19.5581 10.8383 19.3534 10.3324 19.2904 9.56594C18.9597 6.07069 15.8732 3.29596 12.4088 3.2653C8.75548 3.23464 5.65328 5.85607 5.24385 9.41264C5.16512 10.1332 4.9919 10.6237 4.25178 10.823C4.11006 10.8997 3.88959 10.8843 3.84235 11.1756C4.11006 11.1449 4.34626 11.0989 4.55098 10.9456C5.11788 10.823 5.66903 10.685 6.23593 10.5624C6.3934 10.5317 6.58237 10.5011 6.56662 10.3171C6.55087 10.0718 6.34616 10.0565 6.15719 10.1178C5.63753 10.2865 5.68478 9.97985 5.71627 9.64259C5.79501 8.63081 6.1257 7.68035 6.6611 6.83719C7.71617 5.18155 9.1964 4.12378 11.212 3.77119C11.212 3.86317 11.2278 3.90916 11.212 3.90916C11.1333 3.97048 11.0546 4.04713 10.9758 4.09312C8.9602 5.45749 7.8264 7.28177 8.03111 9.71924C8.12559 10.8077 7.88939 11.4975 6.80283 11.9728C5.90524 12.3713 5.95248 12.4786 5.71627 11.4975C5.68478 11.3289 5.70052 11.0989 5.43282 11.1143C5.19661 11.1296 5.14937 11.2982 5.16512 11.4975C5.18087 12.264 5.32259 13.0152 5.76351 13.6744C5.93673 13.935 6.14145 14.0576 6.51938 13.9657C6.10995 13.5364 6.29892 13.1838 6.62961 12.8772C6.94455 12.5706 7.35398 12.3713 7.76341 12.2027C10.1097 11.2522 12.5821 10.823 15.1174 10.7617C16.1094 10.731 17.1173 10.7157 18.0778 11.0683C18.8179 11.3442 18.8967 11.5742 18.5502 12.264C18.3455 12.494 17.9676 12.5553 17.8889 12.9232C18.3613 12.8466 18.3613 12.8466 18.7392 12.448C18.9754 12.2487 19.1801 12.0187 19.2116 11.6968C19.2746 11.0836 19.5896 10.9456 20.125 11.2369C20.3139 11.3749 20.4242 11.5435 20.4872 11.7735C20.5816 12.0954 20.8651 12.264 21.2273 12.1261C21.5422 12.0187 21.6682 11.7581 21.558 11.4209ZM16.4874 9.33599C16.4559 9.55061 16.3456 9.71924 16.0937 9.71924C15.7315 9.71924 15.3536 9.71924 14.9914 9.71924V9.70391C14.6449 9.71924 14.3142 9.7499 13.9678 9.76523C13.7001 9.76523 13.5269 9.65792 13.5111 9.36665C13.4954 9.07538 13.6844 9.04472 13.9048 9.01406C14.6292 8.90675 15.3693 8.93741 16.0937 8.9834C16.3299 8.99873 16.5189 9.07538 16.4874 9.33599ZM17.6527 8.60015C15.0544 7.92563 12.5191 8.23223 9.99951 8.99873C9.36962 9.18269 9.24365 9.07538 9.25939 8.38553C9.35388 6.97517 9.92078 5.7181 11.3223 4.99759C12.897 4.1851 14.5032 4.29241 16.0149 5.21221C17.0858 5.8714 17.8731 6.77588 18.1093 8.03294C18.1723 8.35487 18.2668 8.75345 17.6527 8.60015ZM21.558 11.4209C21.432 11.053 21.1643 10.8843 20.7864 10.9916C20.6131 11.0376 20.4714 11.1756 20.2824 11.1296C19.5581 10.8383 19.3534 10.3324 19.2904 9.56594C18.9597 6.07069 15.8732 3.29596 12.4088 3.2653C8.75548 3.23464 5.65328 5.85607 5.24385 9.41264C5.16512 10.1332 4.9919 10.6237 4.25178 10.823C4.11006 10.8997 3.88959 10.8843 3.84235 11.1756C4.11006 11.1449 4.34626 11.0989 4.55098 10.9456C5.11788 10.823 5.66903 10.685 6.23593 10.5624C6.3934 10.5317 6.58237 10.5011 6.56662 10.3171C6.55087 10.0718 6.34616 10.0565 6.15719 10.1178C5.63753 10.2865 5.68478 9.97985 5.71627 9.64259C5.79501 8.63081 6.1257 7.68035 6.6611 6.83719C7.71617 5.18155 9.1964 4.12378 11.212 3.77119C11.212 3.86317 11.2278 3.90916 11.212 3.90916C11.1333 3.97048 11.0546 4.04713 10.9758 4.09312C8.9602 5.45749 7.8264 7.28177 8.03111 9.71924C8.12559 10.8077 7.88939 11.4975 6.80283 11.9728C5.90524 12.3713 5.95248 12.4786 5.71627 11.4975C5.68478 11.3289 5.70052 11.0989 5.43282 11.1143C5.19661 11.1296 5.14937 11.2982 5.16512 11.4975C5.18087 12.264 5.32259 13.0152 5.76351 13.6744C5.93673 13.935 6.14145 14.0576 6.51938 13.9657C6.10995 13.5364 6.29892 13.1838 6.62961 12.8772C6.94455 12.5706 7.35398 12.3713 7.76341 12.2027C10.1097 11.2522 12.5821 10.823 15.1174 10.7617C16.1094 10.731 17.1173 10.7157 18.0778 11.0683C18.8179 11.3442 18.8967 11.5742 18.5502 12.264C18.3455 12.494 17.9676 12.5553 17.8889 12.9232C18.3613 12.8466 18.3613 12.8466 18.7392 12.448C18.9754 12.2487 19.1801 12.0187 19.2116 11.6968C19.2746 11.0836 19.5896 10.9456 20.125 11.2369C20.3139 11.3749 20.4242 11.5435 20.4872 11.7735C20.5816 12.0954 20.8651 12.264 21.2273 12.1261C21.5422 12.0187 21.6682 11.7581 21.558 11.4209ZM16.4874 9.33599C16.4559 9.55061 16.3456 9.71924 16.0937 9.71924C15.7315 9.71924 15.3536 9.71924 14.9914 9.71924V9.70391C14.6449 9.71924 14.3142 9.7499 13.9678 9.76523C13.7001 9.76523 13.5269 9.65792 13.5111 9.36665C13.4954 9.07538 13.6844 9.04472 13.9048 9.01406C14.6292 8.90675 15.3693 8.93741 16.0937 8.9834C16.3299 8.99873 16.5189 9.07538 16.4874 9.33599ZM17.6527 8.60015C15.0544 7.92563 12.5191 8.23223 9.99951 8.99873C9.36962 9.18269 9.24365 9.07538 9.25939 8.38553C9.35388 6.97517 9.92078 5.7181 11.3223 4.99759C12.897 4.1851 14.5032 4.29241 16.0149 5.21221C17.0858 5.8714 17.8731 6.77588 18.1093 8.03294C18.1723 8.35487 18.2668 8.75345 17.6527 8.60015ZM6.86582 11.0223C7.41697 10.5164 7.44846 9.93386 7.07053 9.58127C6.97605 9.48929 6.86582 9.39731 6.73984 9.47396C6.6611 9.51995 6.55087 9.62726 6.6611 9.71924C7.07053 10.0565 6.83432 10.5011 6.86582 11.0223ZM2.48809 11.2369C1.99993 11.2216 1.73223 11.4822 1.71648 11.9114C1.70073 12.356 2.01568 12.6319 2.4566 12.6779C2.92902 12.7086 3.14948 12.3867 3.24396 11.9728C3.16522 11.5588 2.97626 11.2522 2.48809 11.2369ZM12.0152 0C5.40133 0 -0.015713 5.38084 3.4246e-05 11.9574C0.0315287 19.1472 5.96823 24.2368 11.9522 23.9915C18.44 24.2368 23.9043 18.8099 23.9988 12.1261C24.0933 5.42683 18.692 0 12.0152 0ZM8.17284 22.1519C8.10985 22.7498 7.93663 22.7191 7.46421 22.5198C5.19661 21.5694 5.03914 21.2934 5.60604 18.9633C5.76351 18.2887 5.92098 17.6295 6.1257 16.9703C6.61386 15.3914 7.71617 14.5482 9.57434 14.3642C8.80272 16.955 8.44054 19.5458 8.17284 22.1519ZM16.9283 17.5835C16.4559 17.5069 16.2669 17.6755 16.2669 18.1508C16.2826 19.1012 16.3141 20.067 16.1252 21.0328C15.7315 20.9715 15.8575 20.7109 15.8417 20.5422C15.8102 19.7298 15.7787 18.9173 15.7945 18.1048C15.7945 17.6142 15.5898 17.4916 15.1331 17.5222C14.141 17.5682 13.149 17.6602 12.1726 17.8135C11.8577 17.8595 11.527 18.0434 11.0703 17.7215C12.1884 17.3229 13.2592 17.2003 14.33 17.1083C15.8102 16.9857 15.7945 17.0163 15.574 15.5447C15.5268 15.1614 15.3221 14.7628 15.4795 14.2723C15.9835 14.6862 15.9362 15.2381 16.0149 15.7286C16.2197 17.0163 16.2039 17.001 17.5267 17.231C17.9676 17.3076 18.4558 17.3383 18.8022 17.8288C18.1881 17.7522 17.5582 17.6755 16.9283 17.5835ZM20.2982 19.8524C20.062 18.8559 19.8415 17.8595 19.5896 16.8784C18.8809 14.1956 17.9519 13.4291 15.1174 13.2605C12.4246 13.0918 9.85779 13.5211 7.40122 14.6249C6.72409 14.9315 6.25168 15.376 5.96823 16.0505C5.41707 17.4149 5.11788 18.8253 4.83443 20.251C4.80293 20.4196 4.85017 20.6189 4.64546 20.7262C0.157506 17.1543 -1.244 9.4433 3.76362 4.10845C8.15709 -0.567212 15.7 -0.797162 20.3927 4.16977C24.8964 8.93741 24.1248 16.2805 20.2982 19.8524ZM21.558 11.4209C21.432 11.053 21.1643 10.8843 20.7864 10.9916C20.6131 11.0376 20.4714 11.1756 20.2824 11.1296C19.5581 10.8383 19.3534 10.3324 19.2904 9.56594C18.9597 6.07069 15.8732 3.29596 12.4088 3.2653C8.75548 3.23464 5.65328 5.85607 5.24385 9.41264C5.16512 10.1332 4.9919 10.6237 4.25178 10.823C4.11006 10.8997 3.88959 10.8843 3.84235 11.1756C4.11006 11.1449 4.34626 11.0989 4.55098 10.9456C5.11788 10.823 5.66903 10.685 6.23593 10.5624C6.3934 10.5317 6.58237 10.5011 6.56662 10.3171C6.55087 10.0718 6.34616 10.0565 6.15719 10.1178C5.63753 10.2865 5.68478 9.97985 5.71627 9.64259C5.79501 8.63081 6.1257 7.68035 6.6611 6.83719C7.71617 5.18155 9.1964 4.12378 11.212 3.77119C11.212 3.86317 11.2278 3.90916 11.212 3.90916C11.1333 3.97048 11.0546 4.04713 10.9758 4.09312C8.9602 5.45749 7.8264 7.28177 8.03111 9.71924C8.12559 10.8077 7.88939 11.4975 6.80283 11.9728C5.90524 12.3713 5.95248 12.4786 5.71627 11.4975C5.68478 11.3289 5.70052 11.0989 5.43282 11.1143C5.19661 11.1296 5.14937 11.2982 5.16512 11.4975C5.18087 12.264 5.32259 13.0152 5.76351 13.6744C5.93673 13.935 6.14145 14.0576 6.51938 13.9657C6.10995 13.5364 6.29892 13.1838 6.62961 12.8772C6.94455 12.5706 7.35398 12.3713 7.76341 12.2027C10.1097 11.2522 12.5821 10.823 15.1174 10.7617C16.1094 10.731 17.1173 10.7157 18.0778 11.0683C18.8179 11.3442 18.8967 11.5742 18.5502 12.264C18.3455 12.494 17.9676 12.5553 17.8889 12.9232C18.3613 12.8466 18.3613 12.8466 18.7392 12.448C18.9754 12.2487 19.1801 12.0187 19.2116 11.6968C19.2746 11.0836 19.5896 10.9456 20.125 11.2369C20.3139 11.3749 20.4242 11.5435 20.4872 11.7735C20.5816 12.0954 20.8651 12.264 21.2273 12.1261C21.5422 12.0187 21.6682 11.7581 21.558 11.4209ZM16.4874 9.33599C16.4559 9.55061 16.3456 9.71924 16.0937 9.71924C15.7315 9.71924 15.3536 9.71924 14.9914 9.71924V9.70391C14.6449 9.71924 14.3142 9.7499 13.9678 9.76523C13.7001 9.76523 13.5269 9.65792 13.5111 9.36665C13.4954 9.07538 13.6844 9.04472 13.9048 9.01406C14.6292 8.90675 15.3693 8.93741 16.0937 8.9834C16.3299 8.99873 16.5189 9.07538 16.4874 9.33599ZM17.6527 8.60015C15.0544 7.92563 12.5191 8.23223 9.99951 8.99873C9.36962 9.18269 9.24365 9.07538 9.25939 8.38553C9.35388 6.97517 9.92078 5.7181 11.3223 4.99759C12.897 4.1851 14.5032 4.29241 16.0149 5.21221C17.0858 5.8714 17.8731 6.77588 18.1093 8.03294C18.1723 8.35487 18.2668 8.75345 17.6527 8.60015ZM6.86582 11.0223C7.41697 10.5164 7.44846 9.93386 7.07053 9.58127C6.97605 9.48929 6.86582 9.39731 6.73984 9.47396C6.6611 9.51995 6.55087 9.62726 6.6611 9.71924C7.07053 10.0565 6.83432 10.5011 6.86582 11.0223ZM2.48809 11.2369C1.99993 11.2216 1.73223 11.4822 1.71648 11.9114C1.70073 12.356 2.01568 12.6319 2.4566 12.6779C2.92902 12.7086 3.14948 12.3867 3.24396 11.9728C3.16522 11.5588 2.97626 11.2522 2.48809 11.2369ZM2.48809 11.2369C1.99993 11.2216 1.73223 11.4822 1.71648 11.9114C1.70073 12.356 2.01568 12.6319 2.4566 12.6779C2.92902 12.7086 3.14948 12.3867 3.24396 11.9728C3.16522 11.5588 2.97626 11.2522 2.48809 11.2369ZM7.07053 9.58127C6.97605 9.48929 6.86582 9.39731 6.73984 9.47396C6.6611 9.51995 6.55087 9.62726 6.6611 9.71924C7.07053 10.0565 6.83432 10.5011 6.88156 11.0223C7.41697 10.5164 7.46421 9.93386 7.07053 9.58127ZM21.558 11.4209C21.432 11.053 21.1643 10.8843 20.7864 10.9916C20.6131 11.0376 20.4714 11.1756 20.2824 11.1296C19.5581 10.8383 19.3534 10.3324 19.2904 9.56594C18.9597 6.07069 15.8732 3.29596 12.4088 3.2653C8.75548 3.23464 5.65328 5.85607 5.24385 9.41264C5.16512 10.1332 4.9919 10.6237 4.25178 10.823C4.11006 10.8997 3.88959 10.8843 3.84235 11.1756C4.11006 11.1449 4.34626 11.0989 4.55098 10.9456C5.11788 10.823 5.66903 10.685 6.23593 10.5624C6.3934 10.5317 6.58237 10.5011 6.56662 10.3171C6.55087 10.0718 6.34616 10.0565 6.15719 10.1178C5.63753 10.2865 5.68478 9.97985 5.71627 9.64259C5.79501 8.63081 6.1257 7.68035 6.6611 6.83719C7.71617 5.18155 9.1964 4.12378 11.212 3.77119C11.212 3.86317 11.2278 3.90916 11.212 3.90916C11.1333 3.97048 11.0546 4.04713 10.9758 4.09312C8.9602 5.45749 7.8264 7.28177 8.03111 9.71924C8.12559 10.8077 7.88939 11.4975 6.80283 11.9728C5.90524 12.3713 5.95248 12.4786 5.71627 11.4975C5.68478 11.3289 5.70052 11.0989 5.43282 11.1143C5.19661 11.1296 5.14937 11.2982 5.16512 11.4975C5.18087 12.264 5.32259 13.0152 5.76351 13.6744C5.93673 13.935 6.14145 14.0576 6.51938 13.9657C6.10995 13.5364 6.29892 13.1838 6.62961 12.8772C6.94455 12.5706 7.35398 12.3713 7.76341 12.2027C10.1097 11.2522 12.5821 10.823 15.1174 10.7617C16.1094 10.731 17.1173 10.7157 18.0778 11.0683C18.8179 11.3442 18.8967 11.5742 18.5502 12.264C18.3455 12.494 17.9676 12.5553 17.8889 12.9232C18.3613 12.8466 18.3613 12.8466 18.7392 12.448C18.9754 12.2487 19.1801 12.0187 19.2116 11.6968C19.2746 11.0836 19.5896 10.9456 20.125 11.2369C20.3139 11.3749 20.4242 11.5435 20.4872 11.7735C20.5816 12.0954 20.8651 12.264 21.2273 12.1261C21.5422 12.0187 21.6682 11.7581 21.558 11.4209ZM16.4874 9.33599C16.4559 9.55061 16.3456 9.71924 16.0937 9.71924C15.7315 9.71924 15.3536 9.71924 14.9914 9.71924V9.70391C14.6449 9.71924 14.3142 9.7499 13.9678 9.76523C13.7001 9.76523 13.5269 9.65792 13.5111 9.36665C13.4954 9.07538 13.6844 9.04472 13.9048 9.01406C14.6292 8.90675 15.3693 8.93741 16.0937 8.9834C16.3299 8.99873 16.5189 9.07538 16.4874 9.33599ZM17.6527 8.60015C15.0544 7.92563 12.5191 8.23223 9.99951 8.99873C9.36962 9.18269 9.24365 9.07538 9.25939 8.38553C9.35388 6.97517 9.92078 5.7181 11.3223 4.99759C12.897 4.1851 14.5032 4.29241 16.0149 5.21221C17.0858 5.8714 17.8731 6.77588 18.1093 8.03294C18.1723 8.35487 18.2668 8.75345 17.6527 8.60015ZM21.558 11.4209C21.432 11.053 21.1643 10.8843 20.7864 10.9916C20.6131 11.0376 20.4714 11.1756 20.2824 11.1296C19.5581 10.8383 19.3534 10.3324 19.2904 9.56594C18.9597 6.07069 15.8732 3.29596 12.4088 3.2653C8.75548 3.23464 5.65328 5.85607 5.24385 9.41264C5.16512 10.1332 4.9919 10.6237 4.25178 10.823C4.11006 10.8997 3.88959 10.8843 3.84235 11.1756C4.11006 11.1449 4.34626 11.0989 4.55098 10.9456C5.11788 10.823 5.66903 10.685 6.23593 10.5624C6.3934 10.5317 6.58237 10.5011 6.56662 10.3171C6.55087 10.0718 6.34616 10.0565 6.15719 10.1178C5.63753 10.2865 5.68478 9.97985 5.71627 9.64259C5.79501 8.63081 6.1257 7.68035 6.6611 6.83719C7.71617 5.18155 9.1964 4.12378 11.212 3.77119C11.212 3.86317 11.2278 3.90916 11.212 3.90916C11.1333 3.97048 11.0546 4.04713 10.9758 4.09312C8.9602 5.45749 7.8264 7.28177 8.03111 9.71924C8.12559 10.8077 7.88939 11.4975 6.80283 11.9728C5.90524 12.3713 5.95248 12.4786 5.71627 11.4975C5.68478 11.3289 5.70052 11.0989 5.43282 11.1143C5.19661 11.1296 5.14937 11.2982 5.16512 11.4975C5.18087 12.264 5.32259 13.0152 5.76351 13.6744C5.93673 13.935 6.14145 14.0576 6.51938 13.9657C6.10995 13.5364 6.29892 13.1838 6.62961 12.8772C6.94455 12.5706 7.35398 12.3713 7.76341 12.2027C10.1097 11.2522 12.5821 10.823 15.1174 10.7617C16.1094 10.731 17.1173 10.7157 18.0778 11.0683C18.8179 11.3442 18.8967 11.5742 18.5502 12.264C18.3455 12.494 17.9676 12.5553 17.8889 12.9232C18.3613 12.8466 18.3613 12.8466 18.7392 12.448C18.9754 12.2487 19.1801 12.0187 19.2116 11.6968C19.2746 11.0836 19.5896 10.9456 20.125 11.2369C20.3139 11.3749 20.4242 11.5435 20.4872 11.7735C20.5816 12.0954 20.8651 12.264 21.2273 12.1261C21.5422 12.0187 21.6682 11.7581 21.558 11.4209ZM16.4874 9.33599C16.4559 9.55061 16.3456 9.71924 16.0937 9.71924C15.7315 9.71924 15.3536 9.71924 14.9914 9.71924V9.70391C14.6449 9.71924 14.3142 9.7499 13.9678 9.76523C13.7001 9.76523 13.5269 9.65792 13.5111 9.36665C13.4954 9.07538 13.6844 9.04472 13.9048 9.01406C14.6292 8.90675 15.3693 8.93741 16.0937 8.9834C16.3299 8.99873 16.5189 9.07538 16.4874 9.33599ZM17.6527 8.60015C15.0544 7.92563 12.5191 8.23223 9.99951 8.99873C9.36962 9.18269 9.24365 9.07538 9.25939 8.38553C9.35388 6.97517 9.92078 5.7181 11.3223 4.99759C12.897 4.1851 14.5032 4.29241 16.0149 5.21221C17.0858 5.8714 17.8731 6.77588 18.1093 8.03294C18.1723 8.35487 18.2668 8.75345 17.6527 8.60015ZM7.07053 9.58127C6.97605 9.48929 6.86582 9.39731 6.73984 9.47396C6.6611 9.51995 6.55087 9.62726 6.6611 9.71924C7.07053 10.0565 6.83432 10.5011 6.88156 11.0223C7.41697 10.5164 7.46421 9.93386 7.07053 9.58127ZM2.48809 11.2369C1.99993 11.2216 1.73223 11.4822 1.71648 11.9114C1.70073 12.356 2.01568 12.6319 2.4566 12.6779C2.92902 12.7086 3.14948 12.3867 3.24396 11.9728C3.16522 11.5588 2.97626 11.2522 2.48809 11.2369Z" fill="#547CA0"/>
<path d="M12.1094 5.45757C13.1959 4.52243 16.0147 5.19696 16.5658 6.546C15.1486 5.68752 13.7313 5.30427 12.1094 5.45757Z" fill="#547CA0"/>
<path d="M2.48702 11.237C1.99886 11.2217 1.73116 11.4823 1.71541 11.9115C1.69966 12.3561 2.01461 12.6321 2.45553 12.678C2.92794 12.7087 3.14841 12.3868 3.24289 11.9729C3.16415 11.559 2.97519 11.2524 2.48702 11.237ZM7.06946 9.58138C6.97498 9.4894 6.86475 9.39742 6.73877 9.47407C6.66003 9.52006 6.5498 9.62737 6.66003 9.71935C7.06946 10.0566 6.83325 10.5012 6.88049 11.0224C7.4159 10.5165 7.46314 9.93397 7.06946 9.58138ZM21.5569 11.421C21.4309 11.0531 21.1632 10.8844 20.7853 10.9917C20.6121 11.0377 20.4703 11.1757 20.2814 11.1297C19.557 10.8384 19.3523 10.3325 19.2893 9.56605C18.9586 6.0708 15.8722 3.29606 12.4078 3.2654C8.75441 3.23474 5.65221 5.85618 5.24278 9.41275C5.16405 10.1333 4.99083 10.6238 4.25071 10.8231C4.10898 10.8998 3.88852 10.8844 3.84128 11.1757C4.10898 11.145 4.34519 11.0991 4.54991 10.9457C5.11681 10.8231 5.66796 10.6851 6.23486 10.5625C6.39233 10.5318 6.5813 10.5012 6.56555 10.3172C6.5498 10.0719 6.34509 10.0566 6.15612 10.1179C5.63646 10.2866 5.68371 9.97996 5.7152 9.6427C5.79394 8.63091 6.12463 7.68045 6.66003 6.8373C7.7151 5.18166 9.19533 4.12388 11.211 3.77129C11.211 3.86327 11.2267 3.90926 11.211 3.90926C11.1322 3.97058 11.0535 4.04723 10.9748 4.09322C8.95912 5.4576 7.82533 7.28187 8.03004 9.71935C8.12452 10.8078 7.88831 11.4976 6.80176 11.9729C5.90417 12.3714 5.95141 12.4788 5.7152 11.4976C5.68371 11.329 5.69945 11.099 5.43175 11.1144C5.19554 11.1297 5.1483 11.2983 5.16405 11.4976C5.1798 12.2641 5.32152 13.0153 5.76244 13.6745C5.93566 13.9351 6.14038 14.0577 6.51831 13.9658C6.10888 13.5365 6.29785 13.1839 6.62854 12.8773C6.94348 12.5707 7.35291 12.3714 7.76234 12.2028C10.1087 11.2523 12.581 10.8231 15.1163 10.7618C16.1084 10.7311 17.1162 10.7158 18.0768 11.0684C18.8169 11.3443 18.8956 11.5743 18.5492 12.2641C18.3445 12.4941 17.9665 12.5554 17.8878 12.9233C18.3602 12.8467 18.3602 12.8467 18.7381 12.4481C18.9743 12.2488 19.1791 12.0189 19.2106 11.6969C19.2735 11.0837 19.5885 10.9457 20.1239 11.237C20.3129 11.375 20.4231 11.5436 20.4861 11.7736C20.5806 12.0955 20.864 12.2641 21.2262 12.1262C21.5411 12.0189 21.6671 11.7582 21.5569 11.421ZM16.4863 9.3361C16.4548 9.55072 16.3446 9.71935 16.0926 9.71935C15.7304 9.71935 15.3525 9.71935 14.9903 9.71935V9.70402C14.6439 9.71935 14.3132 9.75001 13.9667 9.76534C13.699 9.76534 13.5258 9.65803 13.5101 9.36676C13.4943 9.07549 13.6833 9.04483 13.9037 9.01417C14.6281 8.90686 15.3682 8.93751 16.0926 8.9835C16.3288 8.99884 16.5178 9.07549 16.4863 9.3361ZM17.6516 8.60025C15.0533 7.92573 12.518 8.23233 9.99844 8.99884C9.36855 9.1828 9.24257 9.07549 9.25832 8.38563C9.35281 6.97527 9.9197 5.71821 11.3212 4.9977C12.8959 4.1852 14.5021 4.29252 16.0139 5.21232C17.0847 5.87151 17.872 6.77598 18.1083 8.03304C18.1712 8.35497 18.2657 8.75355 17.6516 8.60025Z" fill="#547CA0"/>
<path d="M16.5502 6.546C15.1487 5.67219 13.7157 5.30427 12.0938 5.45757C13.1961 4.52243 16.0148 5.19696 16.5502 6.546Z" fill="#547CA0"/>
<path d="M20.267 11.1297C19.5426 10.8384 19.3379 10.3325 19.2749 9.56605C18.9442 6.0708 15.8578 3.29606 12.3934 3.2654C8.74003 3.23474 5.63783 5.85618 5.2284 9.41275C5.14967 10.1333 4.97645 10.6238 4.23633 10.8231C4.23633 11.0837 4.37805 11.0377 4.53553 10.9457C5.10242 10.8231 5.65358 10.6851 6.22048 10.5625C6.37795 10.5318 6.56691 10.5012 6.55117 10.3172C6.53542 10.0719 6.33071 10.0566 6.14174 10.1179C5.62208 10.2866 5.66932 9.97996 5.70082 9.6427C5.77955 8.63091 6.11025 7.68045 6.64565 6.8373C7.70071 5.18166 9.18095 4.12388 11.1966 3.77129C11.1966 3.86327 11.2123 3.90926 11.1966 3.90926C11.1179 3.97058 11.0391 4.04723 10.9604 4.09322C8.94474 5.4576 7.81094 7.28187 8.01566 9.71935C8.11014 10.8078 7.87393 11.4976 6.78738 11.9729C5.88978 12.3714 5.93703 12.4788 5.70082 11.4976C5.66932 11.329 5.68507 11.099 5.41737 11.1144C5.18116 11.1297 5.13392 11.2983 5.14967 11.4976C5.16541 12.2641 5.30714 13.0153 5.74806 13.6745C5.92128 13.9351 6.12599 14.0577 6.50393 13.9658C6.0945 13.5365 6.28347 13.1839 6.61416 12.8773C6.9291 12.5707 7.33853 12.3714 7.74796 12.2028C10.0943 11.2523 12.5666 10.8231 15.1019 10.7618C16.094 10.7311 17.1018 10.7158 18.0624 11.0684C18.8025 11.3443 18.8812 11.5743 18.5348 12.2641C18.4876 12.4174 18.5663 12.4634 18.708 12.4481C18.9442 12.2488 19.1489 12.0189 19.1804 11.6969C19.2434 11.0837 19.5584 10.9457 20.0938 11.237C20.267 11.3597 20.2827 11.2677 20.267 11.1297ZM16.4877 9.3361C16.4562 9.55072 16.3459 9.71935 16.094 9.71935C15.7318 9.71935 15.3539 9.71935 14.9917 9.71935V9.70402C14.6452 9.71935 14.3145 9.75001 13.9681 9.76534C13.7004 9.76534 13.5272 9.65803 13.5114 9.36676C13.4957 9.07549 13.6847 9.04483 13.9051 9.01417C14.6295 8.90686 15.3696 8.93751 16.094 8.9835C16.3302 8.99884 16.5192 9.07549 16.4877 9.3361ZM17.6529 8.60025C15.0547 7.92573 12.5194 8.23233 9.99981 8.99884C9.36992 9.1828 9.24394 9.07549 9.25969 8.38563C9.35417 6.97527 9.92107 5.71821 11.3226 4.9977C12.8973 4.1852 14.5035 4.29252 16.0152 5.21232C17.0861 5.87151 17.8734 6.77598 18.1096 8.03304C18.1726 8.35497 18.2671 8.75355 17.6529 8.60025Z" fill="#547CA0"/>
<path d="M3.22865 11.9728C3.13417 12.3867 2.91371 12.7087 2.44129 12.678C2.00037 12.6473 1.70117 12.3561 1.70117 11.9115C1.71692 11.4822 1.98462 11.2216 2.47279 11.237C2.9767 11.2523 3.16566 11.5589 3.22865 11.9728Z" fill="#547CA0"/>
<path d="M21.1961 12.1569C20.8339 12.2949 20.5662 12.1263 20.4559 11.8043C20.3772 11.5744 20.267 11.4058 20.0938 11.2678C20.1567 11.2218 20.2197 11.1758 20.267 11.1298C20.4559 11.1605 20.5977 11.0378 20.7709 10.9918C21.1646 10.8845 21.4323 11.0532 21.5425 11.4211C21.6685 11.7583 21.5425 12.019 21.1961 12.1569Z" fill="#547CA0"/>
<path d="M6.86564 11.0222C6.8184 10.501 7.07035 10.0564 6.64518 9.71915C6.53495 9.62717 6.66092 9.51986 6.72391 9.47387C6.86564 9.39722 6.96012 9.4892 7.0546 9.58118C7.46403 9.93377 7.41679 10.5163 6.86564 11.0222Z" fill="#547CA0"/>
<path d="M18.7078 12.4786C18.3456 12.8772 18.3456 12.8772 17.8574 12.9539C17.9362 12.5859 18.3141 12.5093 18.5188 12.2947C18.5818 12.356 18.6448 12.4173 18.7078 12.4786Z" fill="#547CA0"/>
<path d="M4.55237 10.961C4.34766 11.1143 4.11145 11.145 3.84375 11.191C3.89099 10.8844 4.11145 10.8997 4.25318 10.8384C4.34766 10.869 4.44214 10.915 4.55237 10.961Z" fill="#547CA0"/>
<path d="M16.5502 6.546C15.1487 5.67219 13.7157 5.30427 12.0938 5.45757C13.1961 4.52243 16.0148 5.19696 16.5502 6.546Z" fill="#547CA0"/>
<path d="M16.5502 6.546C15.1487 5.67219 13.7157 5.30427 12.0938 5.45757C13.1961 4.52243 16.0148 5.19696 16.5502 6.546Z" fill="#547CA0"/>
</svg>
