<svg width="20" height="20" viewBox="0 0 20 20" fill="none" xmlns="http://www.w3.org/2000/svg">
<g opacity="0.46" clip-path="url(#clip0_8_8)">
<path d="M10.0658 0C10.0958 0 10.1266 0 10.1566 0.000833333C12.6133 0.0233333 15.0558 0.905833 16.8575 2.42167C18.7617 4.02417 19.8108 6.19917 19.8108 8.545C19.8108 11.0042 17.4166 13.005 14.4741 13.005C13.7333 13.005 13.0166 12.8808 12.3433 12.635C12.1591 12.5675 12.0266 12.4208 11.9808 12.2325C11.9333 12.04 11.9841 11.8433 12.12 11.695C12.5858 11.1833 12.8425 10.52 12.8425 9.8275C12.8425 9.1625 12.5841 8.45667 12.3258 7.85083C12.0358 7.17083 11.6258 6.525 11.1091 5.99417C9.99748 4.85333 8.47498 4.275 6.58415 4.275C4.69248 4.275 2.12915 4.74667 0.663315 6.99167C0.658315 6.99917 0.653315 7.00667 0.648315 7.015C1.86165 2.95667 5.63082 0 10.0658 0Z" fill="black"/>
<path d="M3.0358 17.0925C1.17747 15.2175 0.166637 12.7308 0.18997 10.0892C0.193304 10.0317 0.249137 9.09083 0.790804 8.05417C0.954137 7.74167 1.1508 7.44417 1.37414 7.17083C2.36247 5.96583 3.86414 5.36833 5.38664 5.2C6.89247 5.03333 8.51247 5.16333 9.82164 5.9925C9.8233 5.99333 9.82414 5.99417 9.8258 5.995C10.5358 6.44667 11.1408 7.12167 11.5433 7.85917L11.545 7.86167C11.0916 7.5625 10.5541 7.39417 9.98497 7.4C9.53747 7.405 9.10747 7.545 8.69664 7.71167C7.38997 8.24417 6.37247 9.23417 5.7433 10.59C5.12747 11.9175 4.94997 13.4758 5.2433 14.9783C5.54164 16.5042 6.31747 17.855 7.42914 18.7825C7.72247 19.0275 8.04164 19.245 8.3758 19.4292C8.80997 19.6683 9.27747 19.8558 9.75497 19.9892C9.7658 19.9925 9.7758 19.9958 9.78664 19.9983C7.23164 19.9425 4.84164 18.915 3.0358 17.0925Z" fill="black"/>
<path d="M18.6808 15.4133C17.3099 17.585 15.0991 19.1633 12.6116 19.745C12.3408 19.7575 12.0708 19.7583 11.8008 19.7442C10.7374 19.6908 9.67577 19.4142 8.76244 18.8575C8.53827 18.7208 8.31327 18.5608 8.1091 18.39C7.08827 17.5375 6.3741 16.2917 6.09827 14.8817C5.82494 13.4842 5.9891 12.0375 6.55994 10.8075C6.7841 10.3242 7.07494 9.87083 7.42827 9.4725C7.55827 9.32583 7.69744 9.18667 7.8441 9.05667C7.67327 9.435 7.58244 9.85333 7.59077 10.2825C7.62327 11.8975 8.38994 13.4083 9.75077 14.5375C11.1008 15.6575 12.8849 16.275 14.7741 16.275C16.1366 16.275 17.4624 15.95 18.6083 15.335C18.6183 15.33 18.6449 15.3158 18.6741 15.3467C18.7033 15.3775 18.6866 15.4033 18.6808 15.4133Z" fill="black"/>
</g>
<defs>
<clipPath id="clip0_8_8">
<rect width="20" height="20" fill="white"/>
</clipPath>
</defs>
</svg>
